<?xml version="1.0" encoding="UTF-8" standalone="no"?>
<svg
   xmlns:dc="http://purl.org/dc/elements/1.1/"
   xmlns:cc="http://creativecommons.org/ns#"
   xmlns:rdf="http://www.w3.org/1999/02/22-rdf-syntax-ns#"
   xmlns:svg="http://www.w3.org/2000/svg"
   xmlns="http://www.w3.org/2000/svg"
   xmlns:xlink="http://www.w3.org/1999/xlink"
   xmlns:sodipodi="http://sodipodi.sourceforge.net/DTD/sodipodi-0.dtd"
   xmlns:inkscape="http://www.inkscape.org/namespaces/inkscape"
   width="128"
   height="128"
   viewBox="0 0 140 140"
   version="1.1"
   id="svg4"
   sodipodi:docname="glass-base-01 (1).svg"
   inkscape:version="0.92.4 (5da689c313, 2019-01-14)">
  <metadata
     id="metadata10">
    <rdf:RDF>
      <cc:Work
         rdf:about="">
        <dc:format>image/svg+xml</dc:format>
        <dc:type
           rdf:resource="http://purl.org/dc/dcmitype/StillImage" />
        <dc:title />
      </cc:Work>
    </rdf:RDF>
  </metadata>
  <defs
     id="defs8">
    <linearGradient
       inkscape:collect="always"
       id="linearGradient833">
      <stop
         style="stop-color:#ffffff;stop-opacity:1"
         offset="0"
         id="stop829" />
      <stop
         style="stop-color:#4bfca6;stop-opacity:0;"
         offset="1"
         id="stop831" />
    </linearGradient>
    <linearGradient
       inkscape:collect="always"
       xlink:href="#linearGradient833"
       id="linearGradient835"
       x1="-172.12923"
       y1="-26.894459"
       x2="-39.129227"
       y2="-26.894459"
       gradientUnits="userSpaceOnUse"
       gradientTransform="matrix(0.90225563,0,0,0.90225553,166.65661,90.079423)" />
  </defs>
  <sodipodi:namedview
     pagecolor="#ffffff"
     bordercolor="#666666"
     borderopacity="1"
     objecttolerance="10"
     gridtolerance="10"
     guidetolerance="10"
     inkscape:pageopacity="0"
     inkscape:pageshadow="2"
     inkscape:window-width="1366"
     inkscape:window-height="706"
     id="namedview6"
     showgrid="false"
     inkscape:zoom="2.8284271"
     inkscape:cx="46.909224"
     inkscape:cy="67.923729"
     inkscape:window-x="-8"
     inkscape:window-y="-8"
     inkscape:window-maximized="1"
     inkscape:current-layer="svg4" />
  <clipPath
     clipPathUnits="userSpaceOnUse"
     id="clipPath3">
    <path
       transform="scale(1.09375)"
       d="m 63.992088,8.1502993 c -10.38,0 -22.796,3.5259997 -30.355004,7.2199997 -8.038,3.266 -14.581,7.287 -19.253,14.509 -6.2830003,9.715 -9.3340003,24.721 -7.2550003,48.603 5.9640003,2.07 11.3330003,1.45 16.8420003,-0.415 -1.727,-7.884 -1.448,-15.764 0.496,-22.204 2.126,-7.044 6.404,-12.722 12.675,-13.701 l 2.77,-0.432 0.074,2.803 c 0.054,2.043 0.09,4.17 0.116004,6.335 l 0.027,6.312 c -0.037,8.798 -0.382004,18.286 -1.277004,27.845 5.637004,1.831 14.806004,2.954 23.964004,3.019 l 4.597,-0.058 c 8.53,-0.275 16.742,-1.449 21.665,-3.063 -1.093,-14.65 -1.166,-29.434 -1.52,-41.334 l -0.097,-3.283 3.18,0.824 c 6.238,1.617 10.549992,7.376 12.759992,14.507 2.02,6.51 2.353,14.37 0.64,22.248 a 29.764,29.764 0 0 0 12.847,1.181 l 4.399,-0.588 c 1.033,-18.811 -1.433,-37.403 -6.27,-46.264 l -4.408,-6.376 c -4.647,-5.357 -10.619996,-8.399 -17.664992,-11.074 -6.746,-3.458 -18.358,-6.6139997 -28.95,-6.6139997 z m 0,3.0499997 c 6.494,0 13.37,1.942 19.274,4.516 -3.123,2.758 -6.971,4.665 -11.067,5.754 l -7.852,17.31 -6.838,-16.882 c -4.757,-0.93 -9.26,-2.957 -12.783,-6.174 6.173,-2.643 13.082,-4.524 19.266,-4.524 z m 0.58,28.539 3.512,5.327 -3.497,5.053 -3.53,-5.053 z m 0,11.888 3.512,5.328 -3.497,5.052 -3.53,-5.053 3.514,-5.327 z m 0,11.733 3.512,5.327 -3.497,5.054 -3.53,-5.054 z m 0,11.876 3.512,5.327 -3.497,5.054 -3.53,-5.053 3.514,-5.327 z m 25.079,13.715 c -6.61,2.055 -15.829,2.907 -25.277,2.951 -9.5,0.045 -18.965,-0.744 -25.902004,-2.892 -0.205,1.785 -0.43,3.569 -0.678,5.347 5.968004,2.132 16.346004,3.408 26.497004,3.36 10.143,-0.05 20.355,-1.444 25.912,-3.433 a 241.302,241.302 0 0 1 -0.552,-5.333 z m 1.368,9.086 c -6.782,2.308001 -16.533,3.262001 -26.53,3.310001 -2.935,0.015 -5.866,-0.052 -8.724,-0.213 l -4.227,-0.315 c -5.358,-0.5 -10.307,-1.382001 -14.329004,-2.758001 -0.897,5.430001 -2.02,10.772001 -3.413,15.902991 2.117,1.06 4.41,1.968 6.835004,2.733 l 3.97,1.096 c 15.85,3.805 35.88,2.156 49.601,-3.513 -1.355,-5.08999 -2.387,-10.56999 -3.183,-16.242991 z" />
  </clipPath>
  <g
     clip-path="url(#clipPath3)">
    <g
       transform="rotate(90 70 70)">
      <ellipse
         cx="-65.647781"
         cy="74.097023"
         transform="rotate(-86.54)"
         id="circle2"
         style="fill:#4bfca6;stroke-width:1.99999988;fill-opacity:0.50196081"
         rx="66.5"
         ry="66.500008" />
      <circle
         cx="71.352036"
         cy="65.813751"
         transform="matrix(0.06035169,0.99817718,0.99817717,-0.0603517,0,0)"
         id="circle2-4"
         style="fill:url(#linearGradient835);fill-opacity:1;stroke-width:1.80451107"
         r="60" />
    </g>
  </g>
</svg>
