<?xml version="1.0" encoding="UTF-8" standalone="no"?>
<svg
   xmlns:dc="http://purl.org/dc/elements/1.1/"
   xmlns:cc="http://creativecommons.org/ns#"
   xmlns:rdf="http://www.w3.org/1999/02/22-rdf-syntax-ns#"
   xmlns:svg="http://www.w3.org/2000/svg"
   xmlns="http://www.w3.org/2000/svg"
   xmlns:sodipodi="http://sodipodi.sourceforge.net/DTD/sodipodi-0.dtd"
   xmlns:inkscape="http://www.inkscape.org/namespaces/inkscape"
   width="128"
   height="128"
   viewBox="0 0 140 140"
   version="1.1"
   id="svg4"
   sodipodi:docname="player-base-01-lotus.svg"
   inkscape:version="0.92.4 (5da689c313, 2019-01-14)">
  <metadata
     id="metadata10">
    <rdf:RDF>
      <cc:Work
         rdf:about="">
        <dc:format>image/svg+xml</dc:format>
        <dc:type
           rdf:resource="http://purl.org/dc/dcmitype/StillImage" />
        <dc:title></dc:title>
      </cc:Work>
    </rdf:RDF>
  </metadata>
  <defs
     id="defs8">
    <clipPath
       id="clipPath1193"
       clipPathUnits="userSpaceOnUse">
      <path
         clip-path="none"
         sodipodi:type="star"
         style="fill:#8ac556;fill-opacity:1;stroke:none;stroke-width:3.17502642;stroke-linecap:round;stroke-linejoin:miter;stroke-miterlimit:4;stroke-dasharray:none;stroke-opacity:1"
         id="path1195"
         sodipodi:sides="10"
         sodipodi:cx="22.632629"
         sodipodi:cy="26.749075"
         sodipodi:r1="11.885215"
         sodipodi:r2="12.918712"
         sodipodi:arg1="1.0471976"
         sodipodi:arg2="1.3613569"
         inkscape:flatsided="false"
         inkscape:rounded="0.3"
         inkscape:randomized="0"
         d="m 28.575236,37.041973 c -1.042403,0.601832 -2.079296,2.093253 -3.256656,2.343509 -1.177361,0.250256 -2.731225,-0.690484 -3.928294,-0.816301 -1.19707,-0.125817 -2.91257,0.471298 -4.012171,-0.01828 -1.099601,-0.489574 -1.803751,-2.163986 -2.698247,-2.969395 -0.894496,-0.805408 -2.63334,-1.330677 -3.235172,-2.37308 -0.601831,-1.042403 -0.187305,-2.81092 -0.437561,-3.988281 -0.250256,-1.17736 -1.3482643,-2.624378 -1.2224471,-3.821448 0.1258171,-1.19707 1.5006841,-2.384178 1.9902581,-3.483779 0.489574,-1.099601 0.451802,-2.915657 1.25721,-3.810153 0.805408,-0.894496 2.615463,-1.046761 3.657866,-1.648592 1.042404,-0.601832 2.079297,-2.093253 3.256657,-2.343509 1.177361,-0.250256 2.731225,0.690483 3.928294,0.816301 1.19707,0.125817 2.912569,-0.471298 4.012171,0.01828 1.099601,0.489574 1.803751,2.163986 2.698247,2.969394 0.894496,0.805409 2.63334,1.330678 3.235171,2.373081 0.601832,1.042403 0.187306,2.81092 0.437562,3.98828 0.250256,1.177361 1.348264,2.624379 1.222447,3.821449 -0.125817,1.19707 -1.500684,2.384178 -1.990258,3.483779 -0.489574,1.099601 -0.451802,2.915657 -1.257211,3.810153 -0.805408,0.894496 -2.615463,1.046761 -3.657866,1.648592 z" />
    </clipPath>
    <clipPath
       id="clipPath866"
       clipPathUnits="userSpaceOnUse">
      <path
         clip-path="none"
         sodipodi:type="star"
         style="fill:#19260d;fill-opacity:1;stroke:none;stroke-width:3.17502642;stroke-linecap:round;stroke-linejoin:miter;stroke-miterlimit:4;stroke-dasharray:none;stroke-opacity:1"
         id="path868"
         sodipodi:sides="10"
         sodipodi:cx="22.632629"
         sodipodi:cy="26.749075"
         sodipodi:r1="11.885215"
         sodipodi:r2="12.918712"
         sodipodi:arg1="1.0471976"
         sodipodi:arg2="1.3613569"
         inkscape:flatsided="false"
         inkscape:rounded="0.3"
         inkscape:randomized="0"
         d="m 28.575236,37.041973 c -1.042403,0.601832 -2.079296,2.093253 -3.256656,2.343509 -1.177361,0.250256 -2.731225,-0.690484 -3.928294,-0.816301 -1.19707,-0.125817 -2.91257,0.471298 -4.012171,-0.01828 -1.099601,-0.489574 -1.803751,-2.163986 -2.698247,-2.969395 -0.894496,-0.805408 -2.63334,-1.330677 -3.235172,-2.37308 -0.601831,-1.042403 -0.187305,-2.81092 -0.437561,-3.988281 -0.250256,-1.17736 -1.3482643,-2.624378 -1.2224471,-3.821448 0.1258171,-1.19707 1.5006841,-2.384178 1.9902581,-3.483779 0.489574,-1.099601 0.451802,-2.915657 1.25721,-3.810153 0.805408,-0.894496 2.615463,-1.046761 3.657866,-1.648592 1.042404,-0.601832 2.079297,-2.093253 3.256657,-2.343509 1.177361,-0.250256 2.731225,0.690483 3.928294,0.816301 1.19707,0.125817 2.912569,-0.471298 4.012171,0.01828 1.099601,0.489574 1.803751,2.163986 2.698247,2.969394 0.894496,0.805409 2.63334,1.330678 3.235171,2.373081 0.601832,1.042403 0.187306,2.81092 0.437562,3.98828 0.250256,1.177361 1.348264,2.624379 1.222447,3.821449 -0.125817,1.19707 -1.500684,2.384178 -1.990258,3.483779 -0.489574,1.099601 -0.451802,2.915657 -1.257211,3.810153 -0.805408,0.894496 -2.615463,1.046761 -3.657866,1.648592 z"
         transform="matrix(1.1498158,0.66384647,-0.66384647,1.1498158,11.842424,-25.6726)"
         mask="none" />
    </clipPath>
    <clipPath
       id="clipPath1193-0"
       clipPathUnits="userSpaceOnUse">
      <path
         clip-path="none"
         sodipodi:type="star"
         style="fill:#8ac556;fill-opacity:1;stroke:none;stroke-width:3.17502642;stroke-linecap:round;stroke-linejoin:miter;stroke-miterlimit:4;stroke-dasharray:none;stroke-opacity:1"
         id="path1195-5"
         sodipodi:sides="10"
         sodipodi:cx="22.632629"
         sodipodi:cy="26.749075"
         sodipodi:r1="11.885215"
         sodipodi:r2="12.918712"
         sodipodi:arg1="1.0471976"
         sodipodi:arg2="1.3613569"
         inkscape:flatsided="false"
         inkscape:rounded="0.3"
         inkscape:randomized="0"
         d="m 28.575236,37.041973 c -1.042403,0.601832 -2.079296,2.093253 -3.256656,2.343509 -1.177361,0.250256 -2.731225,-0.690484 -3.928294,-0.816301 -1.19707,-0.125817 -2.91257,0.471298 -4.012171,-0.01828 -1.099601,-0.489574 -1.803751,-2.163986 -2.698247,-2.969395 -0.894496,-0.805408 -2.63334,-1.330677 -3.235172,-2.37308 -0.601831,-1.042403 -0.187305,-2.81092 -0.437561,-3.988281 -0.250256,-1.17736 -1.3482643,-2.624378 -1.2224471,-3.821448 0.1258171,-1.19707 1.5006841,-2.384178 1.9902581,-3.483779 0.489574,-1.099601 0.451802,-2.915657 1.25721,-3.810153 0.805408,-0.894496 2.615463,-1.046761 3.657866,-1.648592 1.042404,-0.601832 2.079297,-2.093253 3.256657,-2.343509 1.177361,-0.250256 2.731225,0.690483 3.928294,0.816301 1.19707,0.125817 2.912569,-0.471298 4.012171,0.01828 1.099601,0.489574 1.803751,2.163986 2.698247,2.969394 0.894496,0.805409 2.63334,1.330678 3.235171,2.373081 0.601832,1.042403 0.187306,2.81092 0.437562,3.98828 0.250256,1.177361 1.348264,2.624379 1.222447,3.821449 -0.125817,1.19707 -1.500684,2.384178 -1.990258,3.483779 -0.489574,1.099601 -0.451802,2.915657 -1.257211,3.810153 -0.805408,0.894496 -2.615463,1.046761 -3.657866,1.648592 z" />
    </clipPath>
    <clipPath
       id="clipPath866-4"
       clipPathUnits="userSpaceOnUse">
      <path
         clip-path="none"
         sodipodi:type="star"
         style="fill:#19260d;fill-opacity:1;stroke:none;stroke-width:3.17502642;stroke-linecap:round;stroke-linejoin:miter;stroke-miterlimit:4;stroke-dasharray:none;stroke-opacity:1"
         id="path868-9"
         sodipodi:sides="10"
         sodipodi:cx="22.632629"
         sodipodi:cy="26.749075"
         sodipodi:r1="11.885215"
         sodipodi:r2="12.918712"
         sodipodi:arg1="1.0471976"
         sodipodi:arg2="1.3613569"
         inkscape:flatsided="false"
         inkscape:rounded="0.3"
         inkscape:randomized="0"
         d="m 28.575236,37.041973 c -1.042403,0.601832 -2.079296,2.093253 -3.256656,2.343509 -1.177361,0.250256 -2.731225,-0.690484 -3.928294,-0.816301 -1.19707,-0.125817 -2.91257,0.471298 -4.012171,-0.01828 -1.099601,-0.489574 -1.803751,-2.163986 -2.698247,-2.969395 -0.894496,-0.805408 -2.63334,-1.330677 -3.235172,-2.37308 -0.601831,-1.042403 -0.187305,-2.81092 -0.437561,-3.988281 -0.250256,-1.17736 -1.3482643,-2.624378 -1.2224471,-3.821448 0.1258171,-1.19707 1.5006841,-2.384178 1.9902581,-3.483779 0.489574,-1.099601 0.451802,-2.915657 1.25721,-3.810153 0.805408,-0.894496 2.615463,-1.046761 3.657866,-1.648592 1.042404,-0.601832 2.079297,-2.093253 3.256657,-2.343509 1.177361,-0.250256 2.731225,0.690483 3.928294,0.816301 1.19707,0.125817 2.912569,-0.471298 4.012171,0.01828 1.099601,0.489574 1.803751,2.163986 2.698247,2.969394 0.894496,0.805409 2.63334,1.330678 3.235171,2.373081 0.601832,1.042403 0.187306,2.81092 0.437562,3.98828 0.250256,1.177361 1.348264,2.624379 1.222447,3.821449 -0.125817,1.19707 -1.500684,2.384178 -1.990258,3.483779 -0.489574,1.099601 -0.451802,2.915657 -1.257211,3.810153 -0.805408,0.894496 -2.615463,1.046761 -3.657866,1.648592 z"
         transform="matrix(1.1498158,0.66384647,-0.66384647,1.1498158,11.842424,-25.6726)"
         mask="none" />
    </clipPath>
  </defs>
  <sodipodi:namedview
     pagecolor="#ffffff"
     bordercolor="#666666"
     borderopacity="1"
     objecttolerance="10"
     gridtolerance="10"
     guidetolerance="10"
     inkscape:pageopacity="0"
     inkscape:pageshadow="2"
     inkscape:window-width="1366"
     inkscape:window-height="706"
     id="namedview6"
     showgrid="false"
     inkscape:zoom="2.6668027"
     inkscape:cx="3.3672613"
     inkscape:cy="63.405206"
     inkscape:window-x="-8"
     inkscape:window-y="-8"
     inkscape:window-maximized="1"
     inkscape:current-layer="svg4" />
  <clipPath
     clipPathUnits="userSpaceOnUse"
     id="clipPath3">
    <path
       transform="scale(1.09375)"
       d="m 63.992088,8.1502993 c -10.38,0 -22.796,3.5259997 -30.355004,7.2199997 -8.038,3.266 -14.581,7.287 -19.253,14.509 -6.2830003,9.715 -9.3340003,24.721 -7.2550003,48.603 5.9640003,2.07 11.3330003,1.45 16.8420003,-0.415 -1.727,-7.884 -1.448,-15.764 0.496,-22.204 2.126,-7.044 6.404,-12.722 12.675,-13.701 l 2.77,-0.432 0.074,2.803 c 0.054,2.043 0.09,4.17 0.116004,6.335 l 0.027,6.312 c -0.037,8.798 -0.382004,18.286 -1.277004,27.845 5.637004,1.831 14.806004,2.954 23.964004,3.019 l 4.597,-0.058 c 8.53,-0.275 16.742,-1.449 21.665,-3.063 -1.093,-14.65 -1.166,-29.434 -1.52,-41.334 l -0.097,-3.283 3.18,0.824 c 6.238,1.617 10.549992,7.376 12.759992,14.507 2.02,6.51 2.353,14.37 0.64,22.248 a 29.764,29.764 0 0 0 12.847,1.181 l 4.399,-0.588 c 1.033,-18.811 -1.433,-37.403 -6.27,-46.264 l -4.408,-6.376 c -4.647,-5.357 -10.619996,-8.399 -17.664992,-11.074 -6.746,-3.458 -18.358,-6.6139997 -28.95,-6.6139997 z m 0,3.0499997 c 6.494,0 13.37,1.942 19.274,4.516 -3.123,2.758 -6.971,4.665 -11.067,5.754 l -7.852,17.31 -6.838,-16.882 c -4.757,-0.93 -9.26,-2.957 -12.783,-6.174 6.173,-2.643 13.082,-4.524 19.266,-4.524 z m 0.58,28.539 3.512,5.327 -3.497,5.053 -3.53,-5.053 z m 0,11.888 3.512,5.328 -3.497,5.052 -3.53,-5.053 3.514,-5.327 z m 0,11.733 3.512,5.327 -3.497,5.054 -3.53,-5.054 z m 0,11.876 3.512,5.327 -3.497,5.054 -3.53,-5.053 3.514,-5.327 z m 25.079,13.715 c -6.61,2.055 -15.829,2.907 -25.277,2.951 -9.5,0.045 -18.965,-0.744 -25.902004,-2.892 -0.205,1.785 -0.43,3.569 -0.678,5.347 5.968004,2.132 16.346004,3.408 26.497004,3.36 10.143,-0.05 20.355,-1.444 25.912,-3.433 a 241.302,241.302 0 0 1 -0.552,-5.333 z m 1.368,9.086 c -6.782,2.308001 -16.533,3.262001 -26.53,3.310001 -2.935,0.015 -5.866,-0.052 -8.724,-0.213 l -4.227,-0.315 c -5.358,-0.5 -10.307,-1.382001 -14.329004,-2.758001 -0.897,5.430001 -2.02,10.772001 -3.413,15.902991 2.117,1.06 4.41,1.968 6.835004,2.733 l 3.97,1.096 c 15.85,3.805 35.88,2.156 49.601,-3.513 -1.355,-5.08999 -2.387,-10.56999 -3.183,-16.242991 z" />
  </clipPath>
  <g clip-path="url(#clipPath3)">
  <g
     transform="matrix(1.8897481,0,0,1.8897481,-4.999578,-4.99991)"
     id="g7726">
    <g
       id="g1266"
       transform="translate(1.4e-6,2.36e-6)">
      <path
         d="M 37.432563,41.686394 C 44.356907,62.457274 28.5323,70.369578 5.7833445,73.337771 8.7493802,50.588817 16.661684,34.762051 37.432563,41.686394 Z"
         id="path18"
         inkscape:connector-curvature="0"
         style="fill:#406c15;fill-opacity:0.88200001;stroke-width:2.15711689" />
      <path
         d="M 41.940936,41.940935 C 62.713973,35.016591 70.626278,50.843356 73.592314,73.59231 50.843359,70.626276 35.018749,62.711813 41.940936,41.940935 Z"
         id="path22"
         inkscape:connector-curvature="0"
         style="fill:#406c15;fill-opacity:0.88200001;stroke-width:2.15711689" />
      <path
         d="M 41.940936,37.689257 C 35.016591,16.916222 50.843359,9.0039184 73.592314,6.0378832 70.626278,28.786836 62.711816,44.611447 41.940936,37.689257 Z"
         id="path26"
         inkscape:connector-curvature="0"
         style="fill:#406c15;fill-opacity:0.88200001;stroke-width:2.15711689" />
      <path
         d="M 37.432563,37.432562 C 16.661684,44.356907 8.7493802,28.532295 5.7833445,5.783343 28.5323,8.7493791 44.356907,16.661682 37.432563,37.432562 Z"
         id="path30"
         inkscape:connector-curvature="0"
         style="fill:#406c15;fill-opacity:0.88200001;stroke-width:2.15711689" />
      <g
         transform="matrix(1.5615821,1.5615821,-1.5615821,1.5615821,105.79614,52.308573)"
         id="g960">
        <path
           d="m -25.208105,19.634579 c 7.638,3.818 5.456,10.365 0,17.457 -5.455,-7.092 -7.637,-13.639 0,-17.457 z"
           id="path2"
           inkscape:connector-curvature="0"
           style="fill:#243c0c" />
        <path
           d="m -23.138105,17.125579 c 3.819,-7.637 10.365,-5.455 17.4569998,0 -7.0919998,5.456 -13.6379998,7.638 -17.4569998,0 z"
           id="path6"
           inkscape:connector-curvature="0"
           style="fill:#243c0c" />
        <path
           d="m -27.277105,17.125579 c -3.819,7.638 -10.365,5.456 -17.457,0 7.092,-5.455 13.638,-7.637 17.457,0 z"
           id="path10"
           inkscape:connector-curvature="0"
           style="fill:#243c0c" />
        <path
           d="m -25.208105,14.617579 c -7.637,-3.819 -5.455,-10.365 0,-17.457 5.456,7.092 7.638,13.638 0,17.457 z"
           id="path14"
           inkscape:connector-curvature="0"
           style="fill:#243c0c" />
      </g>
    </g>
    <path
       transform="matrix(2.3983974,1.3847154,-1.3847154,2.3983974,22.445645,-55.806834)"
       d="m 28.575236,37.041973 c -1.042403,0.601832 -2.079296,2.093253 -3.256656,2.343509 -1.177361,0.250256 -2.731225,-0.690484 -3.928294,-0.816301 -1.19707,-0.125817 -2.91257,0.471298 -4.012171,-0.01828 -1.099601,-0.489574 -1.803751,-2.163986 -2.698247,-2.969395 -0.894496,-0.805408 -2.63334,-1.330677 -3.235172,-2.37308 -0.601831,-1.042403 -0.187305,-2.81092 -0.437561,-3.988281 -0.250256,-1.17736 -1.3482643,-2.624378 -1.2224471,-3.821448 0.1258171,-1.19707 1.5006841,-2.384178 1.9902581,-3.483779 0.489574,-1.099601 0.451802,-2.915657 1.25721,-3.810153 0.805408,-0.894496 2.615463,-1.046761 3.657866,-1.648592 1.042404,-0.601832 2.079297,-2.093253 3.256657,-2.343509 1.177361,-0.250256 2.731225,0.690483 3.928294,0.816301 1.19707,0.125817 2.912569,-0.471298 4.012171,0.01828 1.099601,0.489574 1.803751,2.163986 2.698247,2.969394 0.894496,0.805409 2.63334,1.330678 3.235171,2.373081 0.601832,1.042403 0.187306,2.81092 0.437562,3.98828 0.250256,1.177361 1.348264,2.624379 1.222447,3.821449 -0.125817,1.19707 -1.500684,2.384178 -1.990258,3.483779 -0.489574,1.099601 -0.451802,2.915657 -1.257211,3.810153 -0.805408,0.894496 -2.615463,1.046761 -3.657866,1.648592 z"
       inkscape:randomized="0"
       inkscape:rounded="0.3"
       inkscape:flatsided="false"
       sodipodi:arg2="1.3613569"
       sodipodi:arg1="1.0471976"
       sodipodi:r2="12.918712"
       sodipodi:r1="11.885215"
       sodipodi:cy="26.749075"
       sodipodi:cx="22.632629"
       sodipodi:sides="10"
       id="path1197"
       style="fill:#406c15;fill-opacity:0.88235294;stroke:none;stroke-width:3.17502642;stroke-linecap:round;stroke-linejoin:miter;stroke-miterlimit:4;stroke-dasharray:none;stroke-opacity:1"
       sodipodi:type="star"
       clip-path="url(#clipPath1193-0)" />
    <path
       clip-path="url(#clipPath1193-0)"
       sodipodi:type="star"
       style="fill:#3b5b1f;fill-opacity:1;stroke:none;stroke-width:3.17502642;stroke-linecap:round;stroke-linejoin:miter;stroke-miterlimit:4;stroke-dasharray:none;stroke-opacity:1"
       id="path1191"
       sodipodi:sides="10"
       sodipodi:cx="22.632629"
       sodipodi:cy="26.749075"
       sodipodi:r1="11.885215"
       sodipodi:r2="12.918712"
       sodipodi:arg1="1.0471976"
       sodipodi:arg2="1.3613569"
       inkscape:flatsided="false"
       inkscape:rounded="0.3"
       inkscape:randomized="0"
       d="m 28.575236,37.041973 c -1.042403,0.601832 -2.079296,2.093253 -3.256656,2.343509 -1.177361,0.250256 -2.731225,-0.690484 -3.928294,-0.816301 -1.19707,-0.125817 -2.91257,0.471298 -4.012171,-0.01828 -1.099601,-0.489574 -1.803751,-2.163986 -2.698247,-2.969395 -0.894496,-0.805408 -2.63334,-1.330677 -3.235172,-2.37308 -0.601831,-1.042403 -0.187305,-2.81092 -0.437561,-3.988281 -0.250256,-1.17736 -1.3482643,-2.624378 -1.2224471,-3.821448 0.1258171,-1.19707 1.5006841,-2.384178 1.9902581,-3.483779 0.489574,-1.099601 0.451802,-2.915657 1.25721,-3.810153 0.805408,-0.894496 2.615463,-1.046761 3.657866,-1.648592 1.042404,-0.601832 2.079297,-2.093253 3.256657,-2.343509 1.177361,-0.250256 2.731225,0.690483 3.928294,0.816301 1.19707,0.125817 2.912569,-0.471298 4.012171,0.01828 1.099601,0.489574 1.803751,2.163986 2.698247,2.969394 0.894496,0.805409 2.63334,1.330678 3.235171,2.373081 0.601832,1.042403 0.187306,2.81092 0.437562,3.98828 0.250256,1.177361 1.348264,2.624379 1.222447,3.821449 -0.125817,1.19707 -1.500684,2.384178 -1.990258,3.483779 -0.489574,1.099601 -0.451802,2.915657 -1.257211,3.810153 -0.805408,0.894496 -2.615463,1.046761 -3.657866,1.648592 z"
       transform="matrix(2.134932,1.2326036,-1.2326036,2.134932,24.33971,-45.316688)" />
    <g
       transform="matrix(1.85676,3.1547004e-8,-3.1547004e-8,1.85676,2.3511711,2.3511694)"
       style="stroke:#1d2616;stroke-width:1.0583421;stroke-miterlimit:4;stroke-dasharray:none;stroke-opacity:0.23529412"
       id="g1183"
       clip-path="url(#clipPath866-4)">
      <path
         style="fill:none;stroke:#1d2616;stroke-width:1.0583421;stroke-linecap:butt;stroke-linejoin:miter;stroke-miterlimit:4;stroke-dasharray:none;stroke-opacity:0.23529412"
         d="M 7.4083946,7.4083945 C 15.875131,11.641763 20.108499,20.1085 20.108499,20.1085 c 0,0 4.233368,8.466737 12.700106,12.700106"
         id="path1175"
         inkscape:connector-curvature="0"
         sodipodi:nodetypes="ccc" />
      <path
         sodipodi:nodetypes="ccc"
         inkscape:connector-curvature="0"
         id="path1177"
         d="M 32.808606,7.4083951 C 28.575237,15.875131 20.1085,20.108499 20.1085,20.108499 c 0,0 -8.466737,4.233368 -12.700106,12.700106"
         style="fill:none;stroke:#1d2616;stroke-width:1.0583421;stroke-linecap:butt;stroke-linejoin:miter;stroke-miterlimit:4;stroke-dasharray:none;stroke-opacity:0.23529412" />
      <path
         sodipodi:nodetypes="ccc"
         inkscape:connector-curvature="0"
         id="path1179"
         d="m 20.1085,2.1478387 c 2.993443,8.9803303 -1e-6,17.9606603 -1e-6,17.9606603 0,0 -2.993443,8.980331 0,17.960663"
         style="fill:none;stroke:#1d2616;stroke-width:1.0583421;stroke-linecap:butt;stroke-linejoin:miter;stroke-miterlimit:4;stroke-dasharray:none;stroke-opacity:0.23529412" />
      <path
         style="fill:none;stroke:#1d2616;stroke-width:1.0583421;stroke-linecap:butt;stroke-linejoin:miter;stroke-miterlimit:4;stroke-dasharray:none;stroke-opacity:0.23529412"
         d="m 38.069162,20.108501 c -8.980331,2.993442 -17.960661,-2e-6 -17.960661,-2e-6 0,0 -8.98033,-2.993444 -17.9606623,0"
         id="path1181"
         inkscape:connector-curvature="0"
         sodipodi:nodetypes="ccc" />
    </g>
    <circle
       style="fill:#517b2a;fill-opacity:1;stroke:#1d2616;stroke-width:2.26502562;stroke-linecap:round;stroke-linejoin:miter;stroke-miterlimit:4;stroke-dasharray:none;stroke-opacity:1"
       id="path1219"
       cx="39.687832"
       cy="39.687824"
       r="6.7950773" />
  </g>
  </g>
</svg>
