
<?xml version="1.0" encoding="UTF-8" standalone="no"?>
<svg
   xmlns:dc="http://purl.org/dc/elements/1.1/"
   xmlns:cc="http://creativecommons.org/ns#"
   xmlns:rdf="http://www.w3.org/1999/02/22-rdf-syntax-ns#"
   xmlns:svg="http://www.w3.org/2000/svg"
   xmlns="http://www.w3.org/2000/svg"
   xmlns:sodipodi="http://sodipodi.sourceforge.net/DTD/sodipodi-0.dtd"
   xmlns:inkscape="http://www.inkscape.org/namespaces/inkscape"
   width="128"
   height="128"
   version="1.1"
   id="svg861"
   sodipodi:docname="Emote-Suprise.svg"
   inkscape:version="0.92.4 (5da689c313, 2019-01-14)">
  <metadata
     id="metadata867">
    <rdf:RDF>
      <cc:Work
         rdf:about="">
        <dc:format>image/svg+xml</dc:format>
        <dc:type
           rdf:resource="http://purl.org/dc/dcmitype/StillImage" />
        <dc:title></dc:title>
      </cc:Work>
    </rdf:RDF>
  </metadata>
  <defs
     id="defs865" />
  <sodipodi:namedview
     pagecolor="#ffffff"
     bordercolor="#666666"
     borderopacity="1"
     objecttolerance="10"
     gridtolerance="10"
     guidetolerance="10"
     inkscape:pageopacity="0"
     inkscape:pageshadow="2"
     inkscape:window-width="1366"
     inkscape:window-height="706"
     id="namedview863"
     showgrid="false"
     showguides="false"
     inkscape:snap-global="false"
     inkscape:zoom="2.6074563"
     inkscape:cx="-29.632408"
     inkscape:cy="89.141745"
     inkscape:window-x="-8"
     inkscape:window-y="-8"
     inkscape:window-maximized="1"
     inkscape:current-layer="svg861" />
  <circle
     cx="64"
     cy="64"
     r="57.944"
     id="circle849"
     style="fill:none;fill-opacity:1;stroke:#eda401;stroke-width:8;stroke-linejoin:round;stroke-opacity:1" />
  <path
     d="m 36.503858,23.572646 c 0,0 2.9751,-4.36625 9.668848,-4.36625 6.693747,0 9.098668,4.36625 9.098668,4.36625"
     id="path851"
     inkscape:connector-curvature="0"
     style="fill:none;stroke:#753d05;stroke-width:3.19640183;stroke-linecap:round;stroke-miterlimit:4;stroke-dasharray:none;stroke-opacity:1"
     sodipodi:nodetypes="csc" />
  <circle
     style="opacity:1;fill:none;fill-opacity:1;stroke:#eda401;stroke-width:5.18045473;stroke-miterlimit:4;stroke-dasharray:none;stroke-opacity:1"
     id="path882"
     cx="40.859718"
     cy="49.867432"
     r="17.409773" />
  <circle
     cx="34.331154"
     cy="49.302933"
     id="circle853"
     style="fill:#eda401;fill-opacity:1;stroke-width:0.88921434"
     r="8.5" />
  <circle
     cy="52.820045"
     cx="87.127113"
     id="circle855"
     style="fill:none;stroke-width:0.99382782"
     r="9.5" />
  <circle
     style="opacity:1;fill:none;fill-opacity:1;stroke:#eda401;stroke-width:5.18045473;stroke-linecap:butt;stroke-linejoin:round;stroke-miterlimit:4;stroke-dasharray:none;stroke-opacity:1;paint-order:normal"
     id="path882-9"
     cx="88.135605"
     cy="50.591549"
     r="17.409773" />
  <circle
     cx="81.607048"
     cy="50.02705"
     id="circle853-8"
     style="fill:#eda401;fill-opacity:1;stroke-width:0.88921434"
     r="8.5" />
  <path
     style="opacity:1;fill:#eda401;fill-opacity:1;stroke:none;stroke-width:0.08701359;stroke-linecap:round;stroke-linejoin:round;stroke-miterlimit:4;stroke-dasharray:none;stroke-opacity:1;paint-order:stroke fill markers"
     d="m 57.968243,103.7629 c -1.555327,-0.23825 -5.063289,-1.76297 -9.496392,-3.61045 C 44.238448,98.388183 39.909499,96.021416 37.599423,94.487164 33.750965,92.59195 32.675946,89.22096 30.837318,86.490713 27.531481,81.614851 24.931167,75.504284 25.309753,73.501291 c 0.41494,-2.195348 2.307013,-3.969431 4.234051,-3.970008 0.558333,-1.67e-4 2.51614,0.377425 4.350672,0.839094 12.665763,3.187388 32.665162,4.109526 47.422415,2.186565 5.134819,-0.669099 10.237186,-1.579227 13.197057,-2.354009 1.700224,-0.445053 3.217349,-0.671374 3.961633,-0.590983 2.490239,0.268978 4.038659,2.287497 3.805429,4.960767 -0.24621,2.821866 -3.574495,9.797872 -6.33838,13.28506 -1.042022,2.808983 -2.843513,4.703212 -5.634334,6.576019 -2.904898,1.91079 -10.33122,5.576794 -15.662449,7.731774 l -4.060634,1.6414 -5.510858,0.10006 c -3.030976,0.055 -6.228724,-0.01 -7.106112,-0.14423 z m 23.56645,-18.098818 c 4.825496,-0.468556 11.286567,-1.480081 12.964948,-2.02974 1.214833,-0.397853 2.721012,-2.806702 4.068222,-6.506395 1.003847,-2.756769 1.067608,-3.426459 0.396839,-4.167658 -0.599154,-0.662043 -0.864016,-0.658224 -3.725635,0.0537 -3.423381,0.851684 -11.62327,2.249472 -16.097517,2.744054 -8.822161,0.975198 -24.569007,0.83875 -33.065171,-0.286512 -4.165663,-0.551716 -10.751026,-1.74694 -13.680449,-2.482963 -2.875506,-0.722476 -3.323078,-0.70486 -3.885111,0.152907 -0.42892,0.654607 -0.427787,0.846277 0.01412,2.392875 0.70887,2.480913 3.335954,7.640985 4.045467,7.946041 1.262808,0.54295 8.653034,1.693523 13.650994,2.125301 2.871441,0.248064 5.808158,0.502138 6.526014,0.564598 3.275002,0.284969 24.479325,-0.0879 28.787269,-0.506206 z"
     id="path848"
     inkscape:connector-curvature="0"
     sodipodi:nodetypes="cscccsssssccccccccccscsssscccsccc" />
  <g
     transform="matrix(0.67430306,0,0,0.67430306,47.516346,16.692608)"
     id="g895-9">
    <rect
       transform="rotate(33.181827)"
       ry="4.6021867"
       y="77.535965"
       x="0.89777422"
       height="24.928513"
       width="9.2043734"
       id="rect871-7"
       style="opacity:1;fill:#f87a8a;fill-opacity:1;stroke:none;stroke-width:7.59583426;stroke-linecap:round;stroke-linejoin:round;stroke-miterlimit:4;stroke-dasharray:none;stroke-opacity:1;paint-order:stroke fill markers" />
    <rect
       style="opacity:1;fill:#f87a8a;fill-opacity:1;stroke:none;stroke-width:7.59583426;stroke-linecap:round;stroke-linejoin:round;stroke-miterlimit:4;stroke-dasharray:none;stroke-opacity:1;paint-order:stroke fill markers"
       id="rect888-7"
       width="9.2043734"
       height="24.928513"
       x="12.531135"
       y="69.928391"
       ry="4.6021867"
       transform="rotate(33.181827)" />
    <rect
       transform="rotate(33.181827)"
       ry="4.6021867"
       y="62.868221"
       x="23.327593"
       height="24.928513"
       width="9.2043734"
       id="rect890-9"
       style="opacity:1;fill:#f87a8a;fill-opacity:1;stroke:none;stroke-width:7.59583426;stroke-linecap:round;stroke-linejoin:round;stroke-miterlimit:4;stroke-dasharray:none;stroke-opacity:1;paint-order:stroke fill markers" />
  </g>
  <g
     transform="matrix(0.67430306,0,0,0.67430306,127.30834,17.267881)"
     id="g895-9-8">
    <rect
       transform="rotate(33.181827)"
       ry="4.6021867"
       y="77.535965"
       x="0.89777422"
       height="24.928513"
       width="9.2043734"
       id="rect871-7-3"
       style="opacity:1;fill:#f87a8a;fill-opacity:1;stroke:none;stroke-width:7.59583426;stroke-linecap:round;stroke-linejoin:round;stroke-miterlimit:4;stroke-dasharray:none;stroke-opacity:1;paint-order:stroke fill markers" />
    <rect
       style="opacity:1;fill:#f87a8a;fill-opacity:1;stroke:none;stroke-width:7.59583426;stroke-linecap:round;stroke-linejoin:round;stroke-miterlimit:4;stroke-dasharray:none;stroke-opacity:1;paint-order:stroke fill markers"
       id="rect888-7-9"
       width="9.2043734"
       height="24.928513"
       x="12.531135"
       y="69.928391"
       ry="4.6021867"
       transform="rotate(33.181827)" />
    <rect
       transform="rotate(33.181827)"
       ry="4.6021867"
       y="62.868221"
       x="23.327593"
       height="24.928513"
       width="9.2043734"
       id="rect890-9-0"
       style="opacity:1;fill:#f87a8a;fill-opacity:1;stroke:none;stroke-width:7.59583426;stroke-linecap:round;stroke-linejoin:round;stroke-miterlimit:4;stroke-dasharray:none;stroke-opacity:1;paint-order:stroke fill markers" />
  </g>
  <path
     d="m 75.058088,23.572841 c 0,0 2.9751,-4.36625 9.668848,-4.36625 6.693743,0 9.098673,4.36625 9.098673,4.36625"
     id="path851-4"
     inkscape:connector-curvature="0"
     style="fill:none;stroke:#753d05;stroke-width:3.19640183;stroke-linecap:round;stroke-miterlimit:4;stroke-dasharray:none;stroke-opacity:1"
     sodipodi:nodetypes="csc" />
  <path
     style="opacity:1;fill:none;fill-opacity:1;stroke:#eda401;stroke-width:4.06763792;stroke-linecap:round;stroke-linejoin:round;stroke-miterlimit:10;stroke-dasharray:none;stroke-opacity:1;paint-order:stroke fill markers"
     id="path2074"
     sodipodi:type="arc"
     sodipodi:cx="63.855335"
     sodipodi:cy="88.601784"
     sodipodi:rx="28.083803"
     sodipodi:ry="13.595862"
     sodipodi:start="0"
     sodipodi:end="3.1415927"
     d="m 91.939138,88.601784 a 28.083803,13.595862 0 0 1 -14.041902,11.774366 28.083803,13.595862 0 0 1 -28.083803,0 28.083803,13.595862 0 0 1 -14.041901,-11.774367 l 28.083803,10e-7 z" />
  <path
     style="opacity:1;fill:#cb8c01;fill-opacity:1;stroke:#cb8c01;stroke-width:9.69999981;stroke-miterlimit:4;stroke-dasharray:none;stroke-opacity:1;paint-order:normal"
     d="m 43.51128,125.41449 c -1.55927,-0.72827 -2.08969,-1.98838 -2.64045,-6.27285 -0.27405,-2.13183 -0.66002,-3.87033 -1.0496,-4.72764 -0.97267,-2.14045 -3.11903,-4.26046 -6.08181,-6.00717 -5.00822,-2.95258 -6.55542,-4.42764 -6.55542,-6.24974 0,-1.12349 1.29816,-2.643321 2.63447,-3.084341 3.0651,-1.01157 9.98388,1.221721 16.24566,5.243911 2.20164,1.41419 4.86504,4.07826 5.74861,5.75003 1.34241,2.53994 2.04415,10.98371 1.06381,12.8005 -0.886,1.642 -3.02678,2.6332 -6.31573,2.92423 -1.55596,0.13769 -2.08868,0.0718 -3.04954,-0.37693 z"
     id="path1433"
     inkscape:connector-curvature="0" />
  <path
     style="opacity:1;fill:#cb8c01;fill-opacity:1;stroke:#cb8c01;stroke-width:9.69999981;stroke-miterlimit:4;stroke-dasharray:none;stroke-opacity:1;paint-order:normal"
     d="m 85.724378,124.64782 c 1.55927,-0.72827 2.08969,-1.98838 2.64045,-6.27285 0.27405,-2.13183 0.66002,-3.87033 1.0496,-4.72764 0.97267,-2.14045 3.11903,-4.26046 6.08181,-6.00717 5.008222,-2.95258 6.555422,-4.42764 6.555422,-6.24974 0,-1.12349 -1.29816,-2.643322 -2.634471,-3.084342 -3.065101,-1.01157 -9.983881,1.22172 -16.245661,5.243912 -2.20164,1.41419 -4.865043,4.07826 -5.748613,5.75003 -1.34241,2.53994 -2.04415,10.98371 -1.06381,12.8005 0.886,1.642 3.026783,2.6332 6.315733,2.92423 1.55596,0.13769 2.08868,0.0718 3.04954,-0.37693 z"
     id="path1433-0"
     inkscape:connector-curvature="0" />
</svg>
